<svg width="30" height="31" viewBox="0 0 30 31" fill="none" xmlns="http://www.w3.org/2000/svg">
<path d="M28.4977 7.7328C28.3965 7.66968 28.2809 7.63333 28.1618 7.62718C28.0427 7.62103 27.924 7.64528 27.8168 7.69764C22.7004 10.1961 19.0641 9.03241 15.2145 7.80077C11.2688 6.53866 7.18945 5.23436 1.5668 7.98124C1.44842 8.03897 1.34864 8.12879 1.27881 8.24046C1.20899 8.35213 1.17194 8.48117 1.17188 8.61288V22.6754C1.17193 22.7946 1.20231 22.9119 1.26015 23.0161C1.31799 23.1204 1.4014 23.2082 1.50253 23.2714C1.60366 23.3346 1.71919 23.371 1.83826 23.3772C1.95733 23.3834 2.07603 23.3593 2.1832 23.307C7.29961 20.8086 10.9359 21.9723 14.7855 23.2039C17.0121 23.9176 19.2926 24.6453 21.866 24.6453C23.8406 24.6453 25.9922 24.2164 28.4285 23.0234C28.5469 22.9657 28.6467 22.8759 28.7165 22.7642C28.7863 22.6525 28.8234 22.5235 28.8234 22.3918V8.32928C28.824 8.21043 28.7944 8.09338 28.7374 7.98906C28.6804 7.88475 28.5979 7.79659 28.4977 7.7328ZM27.4219 21.9453C22.5117 24.1965 18.9645 23.0621 15.2145 21.8621C12.982 21.1461 10.7074 20.4219 8.13398 20.4219C6.43594 20.4219 4.60898 20.7383 2.57812 21.5844V9.05467C7.48828 6.8035 11.0355 7.93788 14.7855 9.13788C18.4898 10.325 22.3137 11.5484 27.4219 9.41913V21.9453ZM15 11.9844C14.3047 11.9844 13.625 12.1905 13.0468 12.5769C12.4687 12.9632 12.0181 13.5122 11.752 14.1546C11.4859 14.797 11.4163 15.5039 11.5519 16.1859C11.6876 16.8678 12.0224 17.4942 12.5141 17.9859C13.0057 18.4776 13.6322 18.8124 14.3141 18.9481C14.9961 19.0837 15.703 19.0141 16.3454 18.748C16.9878 18.4819 17.5368 18.0313 17.9231 17.4532C18.3094 16.875 18.5156 16.1953 18.5156 15.5C18.5156 14.5676 18.1452 13.6734 17.4859 13.0141C16.8266 12.3548 15.9324 11.9844 15 11.9844ZM15 17.6094C14.5828 17.6094 14.175 17.4857 13.8281 17.2539C13.4812 17.0221 13.2108 16.6926 13.0512 16.3072C12.8915 15.9218 12.8498 15.4976 12.9312 15.0885C13.0125 14.6793 13.2134 14.3034 13.5084 14.0084C13.8034 13.7134 14.1793 13.5125 14.5885 13.4311C14.9977 13.3498 15.4218 13.3915 15.8072 13.5512C16.1927 13.7108 16.5221 13.9812 16.7539 14.3281C16.9857 14.675 17.1094 15.0828 17.1094 15.5C17.1094 16.0594 16.8871 16.596 16.4916 16.9915C16.096 17.3871 15.5594 17.6094 15 17.6094ZM6.32812 11.75V17.375C6.32812 17.5615 6.25405 17.7403 6.12218 17.8722C5.99032 18.004 5.81148 18.0781 5.625 18.0781C5.43852 18.0781 5.25968 18.004 5.12782 17.8722C4.99595 17.7403 4.92187 17.5615 4.92187 17.375V11.75C4.92187 11.5635 4.99595 11.3847 5.12782 11.2528C5.25968 11.1209 5.43852 11.0469 5.625 11.0469C5.81148 11.0469 5.99032 11.1209 6.12218 11.2528C6.25405 11.3847 6.32812 11.5635 6.32812 11.75ZM23.6719 19.25V13.625C23.6719 13.4385 23.746 13.2597 23.8778 13.1278C24.0097 12.9959 24.1885 12.9219 24.375 12.9219C24.5615 12.9219 24.7403 12.9959 24.8722 13.1278C25.004 13.2597 25.0781 13.4385 25.0781 13.625V19.25C25.0781 19.4365 25.004 19.6153 24.8722 19.7472C24.7403 19.879 24.5615 19.9531 24.375 19.9531C24.1885 19.9531 24.0097 19.879 23.8778 19.7472C23.746 19.6153 23.6719 19.4365 23.6719 19.25Z" fill="#F8FBFF" stroke="#F8FBFF" stroke-width="0.3"/>
</svg>
