<svg width="12" height="12" viewBox="0 0 12 12" fill="none" xmlns="http://www.w3.org/2000/svg">
<path d="M10.8019 4.27176L6.36921 8.71767C6.31644 8.77044 6.25927 8.80791 6.19771 8.83007C6.13614 8.85224 6.07018 8.86314 5.99982 8.86279C5.92946 8.86279 5.86349 8.85171 5.80193 8.82955C5.74036 8.80738 5.68319 8.77009 5.63042 8.71767L1.18451 4.27176C1.06138 4.14863 0.999817 3.99472 0.999817 3.81002C0.999817 3.62533 1.06578 3.46701 1.19771 3.33509C1.32963 3.20316 1.48355 3.1372 1.65945 3.1372C1.83535 3.1372 1.98926 3.20316 2.12119 3.33509L5.99982 7.21372L9.87844 3.33509C10.0016 3.21196 10.1534 3.15039 10.3339 3.15039C10.5143 3.15039 10.6704 3.21635 10.8019 3.34828C10.9339 3.48021 10.9998 3.63412 10.9998 3.81002C10.9998 3.98592 10.9339 4.13984 10.8019 4.27176Z" fill="#1F1F1F"/>
</svg>
