<svg width="24" height="26" viewBox="0 0 24 26" fill="none" xmlns="http://www.w3.org/2000/svg">
<path d="M12.0003 8.31249C10.7571 8.31249 9.56477 8.80635 8.68569 9.68542C7.80661 10.5645 7.31275 11.7568 7.31275 13C7.31275 14.2432 7.80661 15.4355 8.68569 16.3145C9.56477 17.1936 10.7571 17.6875 12.0003 17.6875C13.2435 17.6875 14.4357 17.1936 15.3148 16.3145C16.1939 15.4355 16.6878 14.2432 16.6878 13C16.6878 11.7568 16.1939 10.5645 15.3148 9.68542C14.4357 8.80635 13.2435 8.31249 12.0003 8.31249ZM8.87525 13C8.87525 12.1712 9.20449 11.3763 9.79054 10.7903C10.3766 10.2042 11.1715 9.87499 12.0003 9.87499C12.8291 9.87499 13.6239 10.2042 14.21 10.7903C14.796 11.3763 15.1253 12.1712 15.1253 13C15.1253 13.8288 14.796 14.6236 14.21 15.2097C13.6239 15.7957 12.8291 16.125 12.0003 16.125C11.1715 16.125 10.3766 15.7957 9.79054 15.2097C9.20449 14.6236 8.87525 13.8288 8.87525 13ZM9.184 25.1675C10.1084 25.3881 11.0546 25.4994 12.0046 25.4994C12.9526 25.4985 13.8972 25.3865 14.819 25.1656C15.0614 25.1073 15.2798 24.9756 15.4447 24.7886C15.6095 24.6016 15.7127 24.3684 15.7403 24.1206L15.9515 22.2012C15.9874 21.8581 16.1446 21.539 16.3946 21.3013C16.6447 21.0636 16.9714 20.9229 17.3159 20.9044C17.5453 20.8944 17.7734 20.9375 17.9834 21.0294L19.7378 21.7987C19.8903 21.8674 20.0555 21.9034 20.2227 21.9045C20.39 21.9056 20.5556 21.8717 20.709 21.805C20.8634 21.7394 21.0015 21.6419 21.1153 21.5187C22.4048 20.1279 23.3677 18.467 23.934 16.6569C24.0083 16.4167 24.006 16.1594 23.9277 15.9206C23.8493 15.6818 23.6986 15.4732 23.4965 15.3237L21.9378 14.1737C21.7521 14.0389 21.601 13.862 21.4968 13.6576C21.3926 13.4531 21.3383 13.2269 21.3383 12.9975C21.3383 12.768 21.3926 12.5418 21.4968 12.3374C21.601 12.1329 21.7521 11.9561 21.9378 11.8212L23.4915 10.6737C23.6942 10.5241 23.8453 10.315 23.9237 10.0755C24.0021 9.83602 24.004 9.57806 23.929 9.33749C23.3636 7.52669 22.3993 5.86573 21.1071 4.47686C20.9358 4.29424 20.7121 4.16916 20.4668 4.1188C20.2215 4.06844 19.9666 4.09527 19.7371 4.19561L17.9834 4.96811C17.8021 5.04999 17.6046 5.09311 17.4046 5.09311C17.0447 5.09213 16.6978 4.95846 16.4303 4.71768C16.1627 4.47691 15.9934 4.14594 15.9546 3.78811L15.7421 1.87561C15.7147 1.62469 15.6096 1.3886 15.4415 1.20026C15.2735 1.01193 15.0508 0.880736 14.8046 0.824985C13.8873 0.620376 12.9513 0.511667 12.0115 0.50061C11.0653 0.511879 10.1228 0.62079 9.199 0.82561C8.95298 0.880787 8.73035 1.01148 8.56226 1.19941C8.39416 1.38734 8.28901 1.6231 8.2615 1.87374L8.049 3.78749C8.00862 4.14591 7.83777 4.47694 7.569 4.71749C7.29437 4.95052 6.94842 5.08282 6.58838 5.09248C6.38977 5.09235 6.19335 5.05107 6.0115 4.97124L4.2615 4.19874C4.03132 4.0974 3.77532 4.07016 3.52896 4.12077C3.28261 4.17139 3.05809 4.29736 2.8865 4.48124C1.59647 5.87068 0.633398 7.53097 0.0677524 9.34061C-0.00707587 9.5811 -0.00515565 9.83893 0.0732464 10.0783C0.151649 10.3176 0.302641 10.5266 0.505252 10.6762L2.06025 11.8237C2.33804 12.029 2.53435 12.3259 2.61451 12.6619C2.69468 12.9979 2.65355 13.3514 2.49838 13.66C2.39515 13.8646 2.24529 14.0421 2.06088 14.1781L0.504627 15.3275C0.302264 15.477 0.151433 15.6858 0.073042 15.9249C-0.0053489 16.164 -0.00741593 16.4215 0.0671274 16.6619C0.631204 18.4735 1.59443 20.1355 2.88588 21.5256C3.05646 21.7096 3.28016 21.8358 3.52583 21.8866C3.77149 21.9375 4.0269 21.9105 4.2565 21.8094L6.01775 21.0362C6.19963 20.9562 6.39588 20.915 6.59463 20.915H6.59963C6.9582 20.9157 7.304 21.0482 7.57133 21.2871C7.83865 21.5261 8.00887 21.855 8.04963 22.2112L8.26088 24.1219C8.28839 24.37 8.39182 24.6036 8.55703 24.7907C8.72225 24.9778 8.94121 25.1094 9.184 25.1675ZM14.224 23.7019C12.7615 24.0144 11.249 24.0144 9.7865 23.7019L9.5965 22.0381C9.51363 21.3 9.16207 20.6181 8.60881 20.1225C8.05556 19.6269 7.33929 19.3521 6.5965 19.3506H6.59025C6.17586 19.3481 5.76563 19.4333 5.3865 19.6006L3.85775 20.2712C2.86549 19.1531 2.10876 17.8465 1.63275 16.4294L2.98588 15.4294C3.3672 15.1482 3.67714 14.7814 3.89074 14.3585C4.10434 13.9356 4.21563 13.4684 4.21563 12.9947C4.21563 12.5209 4.10434 12.0537 3.89074 11.6309C3.67714 11.208 3.3672 10.8412 2.98588 10.56L1.63338 9.55999C2.11166 8.14508 2.86841 6.84026 3.859 5.72249L5.379 6.39249C5.75876 6.56173 6.17012 6.64843 6.58588 6.64686H6.59213C7.33676 6.64531 8.05477 6.36974 8.60922 5.87269C9.16368 5.37564 9.51578 4.6919 9.59838 3.95186L9.78588 2.28936C10.5191 2.14254 11.2644 2.06387 12.0121 2.05436C12.754 2.06374 13.4934 2.14186 14.2209 2.28874L14.4084 3.95061C14.4886 4.69061 14.8391 5.37498 15.3927 5.87253C15.9463 6.37008 16.664 6.64581 17.4084 6.64686C17.8282 6.65673 18.2445 6.56902 18.6246 6.39061L20.1434 5.72124C21.1357 6.83815 21.8928 8.14348 22.3696 9.55936L21.0215 10.555C20.6375 10.8349 20.325 11.2016 20.1096 11.6252C19.8942 12.0488 19.7819 12.5173 19.7819 12.9925C19.7819 13.4677 19.8942 13.9362 20.1096 14.3598C20.325 14.7834 20.6375 15.1501 21.0215 15.43L22.3746 16.43C21.8965 17.8448 21.14 19.1497 20.1496 20.2675L18.6246 19.5987C18.1905 19.4061 17.7169 19.3189 17.2427 19.3442C16.7684 19.3695 16.3068 19.5065 15.8956 19.7442C15.4844 19.9819 15.1352 20.3134 14.8765 20.7117C14.6178 21.1101 14.457 21.5639 14.4071 22.0362L14.224 23.7019Z" fill="#0A59DD"/>
</svg>
