<svg width="20" height="21" viewBox="0 0 20 21" fill="none" xmlns="http://www.w3.org/2000/svg">
<path d="M10.0002 13.1705L2.72775 6.09388C2.66914 6.03562 2.59956 5.98956 2.52303 5.95836C2.44651 5.92717 2.36455 5.91146 2.28192 5.91214C2.19928 5.91283 2.1176 5.9299 2.0416 5.96236C1.9656 5.99482 1.8968 6.04203 1.83917 6.10126C1.78154 6.16049 1.73622 6.23056 1.70585 6.30742C1.67548 6.38428 1.66065 6.46639 1.66222 6.54902C1.6638 6.63165 1.68174 6.71314 1.71502 6.78878C1.74829 6.86443 1.79624 6.93272 1.85608 6.98971L9.56441 14.4897C9.68109 14.6032 9.83746 14.6667 10.0002 14.6667C10.163 14.6667 10.3194 14.6032 10.4361 14.4897L18.1444 6.98971C18.2043 6.93272 18.2522 6.86443 18.2855 6.78878C18.3188 6.71314 18.3367 6.63165 18.3383 6.54902C18.3398 6.46639 18.325 6.38428 18.2946 6.30742C18.2643 6.23056 18.219 6.16049 18.1613 6.10126C18.1037 6.04203 18.0349 5.99482 17.9589 5.96236C17.8829 5.9299 17.8012 5.91283 17.7186 5.91214C17.6359 5.91146 17.554 5.92717 17.4775 5.95836C17.4009 5.98956 17.3314 6.03562 17.2727 6.09388L10.0002 13.1705Z" fill="#818181" stroke="#818181"/>
</svg>
